# xmcd
#
# Track frame offsets:
#	150
#	20272
#	38005
#	56842
#	73655
#	89602
#	105530
#	123695
#	141675
#	160537
#	177005
#	194705
#	209930
#	227225
#	247165
#	266690
#
# Disc length: 3779 seconds
#
# Revision: 1
# Processed by: cddbd v1.5.1PL0 Copyright (c) Steve Scherf et al.
# Submitted via: CDex 1.50Beta5
#
DISCID=fb0ec110
DTITLE=NEW JACK拓郎 - とび出せ!ニューヒーロー
DYEAR=1993
DGENRE=
TTITLE0=NEW JACK拓郎/五星戦隊ダイレンジャー
TTITLE1=Funky Y.K./一気に集中!
TTITLE2=Funky Y.K./龍星王
TTITLE3=NEW JACK拓郎/俺たち無敵さ!!ダイレンジャー
TTITLE4=大矢晋/特捜ロボ・ジャンパーソン
TTITLE5=大矢晋/正義のために
TTITLE6=大矢晋/ハロー・JP!
TTITLE7=大矢晋/朝焼けのララバイ
TTITLE8=佐藤健太/恐竜戦隊ジュウレンジャー
TTITLE9=平石豊茂美/希望の剣
TTITLE10=Ju-Project/大獣神のうた
TTITLE11=ピタゴラス/冒険してラッパピーヤ!
TTITLE12=宮内タカユキ/特捜エクシードラフト
TTITLE13=宮内タカユキ/それは命
TTITLE14=宮内タカユキ/LAST FIGHTER
TTITLE15=宮内タカユキ/ゴールは未来
EXTD=
EXTT0=
EXTT1=
EXTT2=
EXTT3=
EXTT4=
EXTT5=
EXTT6=
EXTT7=
EXTT8=
EXTT9=
EXTT10=
EXTT11=
EXTT12=
EXTT13=
EXTT14=
EXTT15=
PLAYORDER=
